<svg version="1.1" viewBox="0.0 0.0 642.1679790026246 642.1679790026246" fill="none" stroke="none" stroke-linecap="square" stroke-miterlimit="10" xmlns:xlink="http://www.w3.org/1999/xlink" xmlns="http://www.w3.org/2000/svg"><clipPath id="p.0"><path d="m0 0l642.16797 0l0 642.16797l-642.16797 0l0 -642.16797z" clip-rule="nonzero"/></clipPath><g clip-path="url(#p.0)"><path fill="#000000" fill-opacity="0.0" d="m0 0l642.16797 0l0 642.16797l-642.16797 0z" fill-rule="evenodd"/><path fill="#000000" fill-opacity="0.0" d="m10.295276 113.22255l0 0c0 -57.290905 46.443455 -103.73436 103.73436 -103.73436l414.92496 0l0 0c27.512085 0 53.89734 10.929124 73.35132 30.383091c19.453918 19.453964 30.383057 45.839207 30.383057 73.35127l0 414.925c0 57.290894 -46.44342 103.734375 -103.734375 103.734375l-414.92496 0c-57.2909 0 -103.73436 -46.44348 -103.73436 -103.734375z" fill-rule="evenodd"/><path stroke="#ffffff" stroke-width="16.0" stroke-linejoin="round" stroke-linecap="butt" d="m10.295276 113.22255l0 0c0 -57.290905 46.443455 -103.73436 103.73436 -103.73436l414.92496 0l0 0c27.512085 0 53.89734 10.929124 73.35132 30.383091c19.453918 19.453964 30.383057 45.839207 30.383057 73.35127l0 414.925c0 57.290894 -46.44342 103.734375 -103.734375 103.734375l-414.92496 0c-57.2909 0 -103.73436 -46.44348 -103.73436 -103.734375z" fill-rule="evenodd"/><path fill="#ffffff" d="m51.918636 127.30971l0 0c0 -41.747505 33.843044 -75.590546 75.590546 -75.590546l0 0c20.047867 0 39.274612 7.9639816 53.450592 22.139961c14.17598 14.175972 22.139954 33.402725 22.139954 53.450584l0 0c0 41.747513 -33.843033 75.59056 -75.590546 75.59056l0 0c-41.747505 0 -75.590546 -33.84305 -75.590546 -75.59056z" fill-rule="evenodd"/><path fill="#1155cc" d="m193.51443 290.19946l0 0c0 -52.184372 42.303802 -94.488174 94.48819 -94.488174l0 0c25.059814 0 49.09326 9.954971 66.81323 27.674942c17.71997 17.71997 27.674957 41.753418 27.674957 66.81323l0 0c0 52.184387 -42.303802 94.48819 -94.48819 94.48819l0 0c-52.184387 0 -94.48819 -42.303802 -94.48819 -94.48819z" fill-rule="evenodd"/><path fill="#ff0000" d="m371.40683 479.7743l0 0c0 -62.621277 50.764557 -113.38583 113.38583 -113.38583l0 0c30.071777 0 58.911926 11.945953 80.1759 33.20993c21.263916 21.263977 33.2099 50.104095 33.2099 80.1759l0 0c0 62.621277 -50.764526 113.3858 -113.3858 113.3858l0 0c-62.621277 0 -113.38583 -50.764526 -113.38583 -113.3858z" fill-rule="evenodd"/></g></svg>