<svg version="1.1" viewBox="0.0 0.0 642.1679790026246 642.1679790026246" fill="none" stroke="none" stroke-linecap="square" stroke-miterlimit="10" xmlns:xlink="http://www.w3.org/1999/xlink" xmlns="http://www.w3.org/2000/svg"><clipPath id="p.0"><path d="m0 0l642.16797 0l0 642.16797l-642.16797 0l0 -642.16797z" clip-rule="nonzero"/></clipPath><g clip-path="url(#p.0)"><path fill="#000000" fill-opacity="0.0" d="m0 0l642.16797 0l0 642.16797l-642.16797 0z" fill-rule="evenodd"/><path fill="#000000" fill-opacity="0.0" d="m10.295276 113.22255l0 0c0 -57.290905 46.443455 -103.73436 103.73436 -103.73436l414.92496 0l0 0c27.512085 0 53.89734 10.929124 73.35132 30.383091c19.453918 19.453964 30.383057 45.839207 30.383057 73.35127l0 414.925c0 57.290894 -46.44342 103.734375 -103.734375 103.734375l-414.92496 0c-57.2909 0 -103.73436 -46.44348 -103.73436 -103.734375z" fill-rule="evenodd"/><path stroke="#ffffff" stroke-width="16.0" stroke-linejoin="round" stroke-linecap="butt" d="m10.295276 113.22255l0 0c0 -57.290905 46.443455 -103.73436 103.73436 -103.73436l414.92496 0l0 0c27.512085 0 53.89734 10.929124 73.35132 30.383091c19.453918 19.453964 30.383057 45.839207 30.383057 73.35127l0 414.925c0 57.290894 -46.44342 103.734375 -103.734375 103.734375l-414.92496 0c-57.2909 0 -103.73436 -46.44348 -103.73436 -103.734375z" fill-rule="evenodd"/><path fill="#000000" fill-opacity="0.0" d="m67.63386 174.2336l507.71655 1.5433044" fill-rule="evenodd"/><path stroke="#ffffff" stroke-width="8.0" stroke-linejoin="round" stroke-linecap="butt" d="m67.63386 174.2336l507.71655 1.5433044" fill-rule="evenodd"/><path fill="#000000" fill-opacity="0.0" d="m67.63386 319.9134l507.71655 1.5433044" fill-rule="evenodd"/><path stroke="#ffffff" stroke-width="16.0" stroke-linejoin="round" stroke-linecap="butt" d="m67.63386 319.9134l507.71655 1.5433044" fill-rule="evenodd"/><path fill="#000000" fill-opacity="0.0" d="m67.63386 465.59317l507.71655 1.5433044" fill-rule="evenodd"/><path stroke="#ffffff" stroke-width="24.0" stroke-linejoin="round" stroke-linecap="butt" d="m67.63386 465.59317l507.71655 1.5433044" fill-rule="evenodd"/></g></svg>