<svg version="1.1" viewBox="0.0 0.0 642.1679790026246 642.1679790026246" fill="none" stroke="none" stroke-linecap="square" stroke-miterlimit="10" xmlns:xlink="http://www.w3.org/1999/xlink" xmlns="http://www.w3.org/2000/svg"><clipPath id="p.0"><path d="m0 0l642.16797 0l0 642.16797l-642.16797 0l0 -642.16797z" clip-rule="nonzero"/></clipPath><g clip-path="url(#p.0)"><path fill="#000000" fill-opacity="0.0" d="m0 0l642.16797 0l0 642.16797l-642.16797 0z" fill-rule="evenodd"/><path fill="#000000" fill-opacity="0.0" d="m10.295276 113.22255l0 0c0 -57.290905 46.443455 -103.73436 103.73436 -103.73436l414.92496 0l0 0c27.512085 0 53.89734 10.929124 73.35132 30.383091c19.453918 19.453964 30.383057 45.839207 30.383057 73.35127l0 414.925c0 57.290894 -46.44342 103.734375 -103.734375 103.734375l-414.92496 0c-57.2909 0 -103.73436 -46.44348 -103.73436 -103.734375z" fill-rule="evenodd"/><path stroke="#ffffff" stroke-width="16.0" stroke-linejoin="round" stroke-linecap="butt" d="m10.295276 113.22255l0 0c0 -57.290905 46.443455 -103.73436 103.73436 -103.73436l414.92496 0l0 0c27.512085 0 53.89734 10.929124 73.35132 30.383091c19.453918 19.453964 30.383057 45.839207 30.383057 73.35127l0 414.925c0 57.290894 -46.44342 103.734375 -103.734375 103.734375l-414.92496 0c-57.2909 0 -103.73436 -46.44348 -103.73436 -103.734375z" fill-rule="evenodd"/><path fill="#000000" fill-opacity="0.0" d="m82.67454 82.27559l476.81888 0l0 476.8189l-476.81888 0z" fill-rule="evenodd"/><path stroke="#ffffff" stroke-width="8.0" stroke-linejoin="round" stroke-linecap="butt" d="m82.67454 82.27559l476.81888 0l0 476.8189l-476.81888 0z" fill-rule="evenodd"/><path fill="#000000" fill-opacity="0.0" d="m90.46982 321.08398l0 0c0 -127.59082 103.4328 -231.02362 231.02362 -231.02362l0 0c61.27127 0 120.03305 24.33992 163.35837 67.66525c43.325317 43.325333 67.66528 102.0871 67.66528 163.35837l0 0c0 127.59082 -103.43283 231.02362 -231.02365 231.02362l0 0c-127.59082 0 -231.02362 -103.4328 -231.02362 -231.02362z" fill-rule="evenodd"/><path stroke="#ffffff" stroke-width="8.0" stroke-linejoin="round" stroke-linecap="butt" d="m90.46982 321.08398l0 0c0 -127.59082 103.4328 -231.02362 231.02362 -231.02362l0 0c61.27127 0 120.03305 24.33992 163.35837 67.66525c43.325317 43.325333 67.66528 102.0871 67.66528 163.35837l0 0c0 127.59082 -103.43283 231.02362 -231.02365 231.02362l0 0c-127.59082 0 -231.02362 -103.4328 -231.02362 -231.02362z" fill-rule="evenodd"/><path fill="#000000" fill-opacity="0.0" d="m127.7769 432.10236l193.30708 -334.36218l193.30707 334.36218z" fill-rule="evenodd"/><path stroke="#ffffff" stroke-width="8.0" stroke-linejoin="round" stroke-linecap="butt" d="m127.7769 432.10236l193.30708 -334.36218l193.30707 334.36218z" fill-rule="evenodd"/></g></svg>